<?xml version="1.0" standalone="no"?>
<!DOCTYPE svg PUBLIC "-//W3C//DTD SVG 20010904//EN"
 "http://www.w3.org/TR/2001/REC-SVG-20010904/DTD/svg10.dtd">
<svg version="1.0" xmlns="http://www.w3.org/2000/svg"
 width="225.000000pt" height="225.000000pt" viewBox="0 0 225.000000 225.000000"
 preserveAspectRatio="xMidYMid meet">

<g transform="translate(0.000000,225.000000) scale(0.100000,-0.100000)"
fill="#000000" stroke="none">
<path d="M1005 2079 c-299 -36 -585 -243 -715 -521 -70 -151 -85 -220 -84
-403 0 -144 3 -169 27 -248 50 -164 130 -298 243 -409 89 -87 137 -121 248
-174 172 -83 352 -110 541 -81 193 30 347 105 489 238 93 87 148 161 201 271
73 151 89 225 89 413 -1 145 -3 168 -28 250 -68 224 -210 411 -404 532 -176
110 -393 157 -607 132z m269 -173 c242 -47 464 -229 558 -458 104 -256 62
-552 -108 -763 l-24 -30 -90 90 c-49 49 -90 95 -90 102 0 7 -6 13 -14 13 -13
0 -56 49 -56 64 0 14 36 4 65 -19 18 -13 36 -21 39 -17 4 3 5 0 2 -8 -8 -21 8
-42 27 -35 18 7 51 71 43 84 -3 4 -19 8 -36 9 -40 1 -91 31 -101 60 -10 27 11
31 35 6 20 -19 36 -10 36 20 0 19 -4 22 -25 18 -30 -5 -35 22 -7 37 25 13 125
-10 163 -38 15 -12 30 -21 33 -21 12 0 28 80 22 105 -5 21 -11 25 -24 19 -9
-5 -52 -10 -95 -12 -80 -4 -107 5 -107 36 0 12 9 14 45 9 35 -5 45 -3 45 7 0
28 -12 47 -24 38 -19 -16 -66 -20 -66 -7 0 31 76 50 128 32 20 -8 22 -5 22 30
0 21 -7 47 -15 57 -15 19 -15 19 -37 -1 -13 -11 -36 -25 -53 -31 -32 -11 -103
-13 -85 -2 6 4 8 13 5 21 -7 17 76 52 101 42 13 -5 15 -1 9 18 -11 36 -23 45
-37 28 -7 -9 -28 -26 -46 -39 -38 -26 -61 -16 -43 18 6 10 7 23 3 27 -4 5 -2
5 4 2 6 -3 30 7 55 24 24 16 59 32 77 35 40 8 42 31 6 73 -32 39 -48 39 -64 1
-13 -32 -104 -120 -124 -120 -6 0 -18 5 -26 10 -12 7 -11 13 10 36 14 14 33
29 44 33 17 7 17 8 1 24 -23 23 -27 22 -55 -23 -27 -45 -40 -51 -40 -18 0 31
41 87 68 94 29 8 24 23 -18 52 -42 28 -53 24 -61 -19 -9 -58 -37 -98 -66 -99
-18 0 -16 15 3 34 20 20 10 36 -22 36 -14 0 -23 -4 -20 -9 4 -5 2 -19 -2 -31
l-8 -21 -19 20 c-17 19 -17 26 -6 79 7 31 22 72 34 91 20 33 20 34 1 48 -11 8
-36 13 -59 11 -34 -3 -39 -6 -37 -23 2 -11 6 -52 9 -91 5 -75 -6 -114 -32
-114 -18 0 -21 61 -5 91 10 17 7 19 -21 19 -24 0 -30 -3 -25 -16 3 -9 9 -33
12 -55 6 -35 4 -39 -14 -39 -27 0 -47 58 -38 111 6 39 6 39 -27 39 -18 0 -42
-6 -52 -14 -19 -13 -19 -15 -3 -33 10 -10 24 -36 33 -57 15 -34 15 -40 0 -62
-8 -13 -18 -24 -20 -24 -8 0 -35 71 -35 91 0 20 -8 23 -34 13 -17 -6 -22 -34
-7 -34 11 0 54 -71 46 -78 -8 -9 -65 -9 -59 -1 8 13 -27 60 -39 52 -5 -3 -7
-1 -4 4 4 6 0 24 -8 39 -8 16 -15 39 -15 52 0 26 -29 30 -63 7 -22 -14 -25
-12 -71 34 l-48 49 48 35 c89 65 216 121 309 136 81 14 208 12 289 -3z m-685
-369 c70 -69 70 -69 56 -97 -23 -45 -19 -60 15 -60 32 0 100 -29 100 -42 0 -5
4 -7 8 -4 4 2 8 -4 8 -14 0 -10 -3 -17 -7 -14 -4 2 -9 -1 -11 -7 -4 -13 -78
14 -89 33 -11 17 -29 -1 -29 -27 0 -17 4 -23 14 -19 18 7 96 -14 96 -26 0 -5
-9 -14 -21 -20 -26 -14 -106 2 -162 33 -47 26 -57 16 -57 -57 0 -46 1 -48 23
-41 12 5 55 10 95 12 60 4 77 1 93 -13 10 -9 19 -21 19 -27 0 -9 -38 -5 -72 8
-15 6 -18 2 -18 -25 0 -27 3 -31 18 -25 9 5 33 10 52 13 34 5 34 5 18 -19 -19
-30 -77 -45 -118 -30 -25 8 -32 7 -37 -4 -6 -18 4 -65 19 -82 13 -16 52 2 42
20 -4 7 -4 9 1 5 4 -4 24 0 45 8 30 12 43 13 59 4 12 -6 21 -14 21 -18 0 -12
-89 -42 -105 -36 -12 5 -13 1 -4 -25 10 -29 29 -43 29 -22 0 10 56 47 79 53 9
2 17 -9 21 -29 4 -18 4 -30 0 -28 -4 3 -19 -6 -34 -20 -14 -13 -26 -22 -26
-19 0 3 -13 -4 -30 -16 -16 -12 -43 -22 -60 -22 -36 -1 -38 -15 -8 -54 36 -46
68 -60 68 -28 0 9 -5 12 -12 8 -7 -4 -10 -4 -6 0 3 4 9 8 11 8 3 0 32 26 64
58 46 47 64 58 81 53 20 -5 31 -23 15 -23 -5 0 -21 -12 -36 -26 -24 -20 -27
-27 -17 -39 19 -23 33 -18 51 18 20 40 44 42 45 5 1 -16 -2 -28 -6 -28 -4 0
-12 -11 -20 -24 -7 -14 -23 -27 -36 -30 -34 -9 -30 -33 9 -56 50 -31 67 -27
67 15 0 60 41 118 71 99 14 -8 10 -34 -6 -40 -21 -8 0 -34 26 -34 14 0 19 7
19 30 0 35 17 40 29 8 11 -31 -11 -123 -39 -161 -22 -29 -22 -31 -5 -44 38
-27 132 -10 108 19 -7 7 -13 48 -14 91 -2 66 1 80 17 92 32 24 37 17 32 -50
-6 -63 -5 -65 18 -65 25 0 40 15 25 25 -11 6 -26 93 -18 101 3 3 15 0 27 -6
19 -10 21 -18 18 -75 -1 -35 0 -67 4 -70 9 -9 59 3 82 20 18 14 18 15 -7 44
-33 40 -44 88 -24 108 13 14 16 13 26 -6 7 -12 9 -26 6 -31 -10 -16 11 -19 37
-6 24 13 28 11 67 -25 23 -22 41 -48 41 -60 0 -16 4 -19 17 -15 11 5 31 -9 66
-45 l50 -52 -24 -18 c-78 -59 -219 -111 -348 -129 -303 -41 -629 135 -766 414
-66 133 -80 196 -79 351 1 109 5 143 25 211 25 81 106 237 120 232 5 -2 40
-34 78 -71z"/>
</g>
</svg>
